<?xml version="1.0" encoding="UTF-8"?>
<svg version="1.1" xmlns="http://www.w3.org/2000/svg" width="1024" height="1024">
<path d="M0 0 C337.92 0 675.84 0 1024 0 C1024 337.92 1024 675.84 1024 1024 C686.08 1024 348.16 1024 0 1024 C0 686.08 0 348.16 0 0 Z " fill="#FCFCFC" transform="translate(0,0)"/>
<path d="M0 0 C0.66 0.33 1.32 0.66 2 1 C2.75473981 3.31922071 3.37678615 5.56985584 3.9375 7.9375 C4.10934814 8.64680664 4.28119629 9.35611328 4.45825195 10.08691406 C5.71786678 15.44334573 6.76609526 20.82576074 7.6875 26.25 C7.80665771 26.94472412 7.92581543 27.63944824 8.04858398 28.35522461 C9.68436498 38.50415323 10.15919024 48.69820217 10.203125 58.96484375 C10.21013931 60.06829132 10.21715363 61.17173889 10.22438049 62.30862427 C10.24179009 65.85162485 10.24823326 69.3944582 10.25 72.9375 C10.25067474 74.14896698 10.25134949 75.36043396 10.25204468 76.60861206 C10.23609655 94.62090233 9.7501947 112.17337211 7 130 C6.82839355 131.18658203 6.65678711 132.37316406 6.47998047 133.59570312 C-1.14205272 185.66256793 -22.02429619 232.83037994 -56.67089844 272.47119141 C-57.80563712 273.77643271 -58.92408745 275.09580485 -60.0390625 276.41796875 C-63.36752634 280.34677196 -66.86554718 283.78488076 -70.80078125 287.10546875 C-72.35399987 288.443499 -73.86934917 289.82609797 -75.35546875 291.23828125 C-109.36026439 323.49396486 -153.8478277 339.93688537 -200 343 C-193.82595926 320.86464303 -183.93229445 299.65520229 -174 279 C-173.36046387 277.66316162 -173.36046387 277.66316162 -172.70800781 276.29931641 C-153.70568977 236.78022119 -129.10025091 200.37987118 -102.18359375 165.859375 C-99.71205086 162.62293601 -97.35236684 159.32390674 -95 156 C-99.60577969 160.8863119 -104.20715625 165.77673678 -108.80615234 170.66943359 C-110.82156031 172.8104401 -112.84171558 174.94684128 -114.86328125 177.08203125 C-121.54977644 184.16386266 -127.96904533 191.34284148 -134 199 C-134.825 200.02996094 -135.65 201.05992187 -136.5 202.12109375 C-156.24525684 226.86095338 -174.96044916 253.0997935 -190 281 C-190.47308594 281.8760791 -190.94617188 282.7521582 -191.43359375 283.65478516 C-195.04837239 290.39024444 -198.54120694 297.18341768 -202 304 C-202.42684082 304.82693359 -202.85368164 305.65386719 -203.29345703 306.50585938 C-211.81535671 323.08720409 -218.53991093 340.4220313 -225.36352539 357.75195312 C-225.96362679 359.26391014 -225.96362679 359.26391014 -226.57585144 360.80641174 C-227.32980476 362.7067071 -228.07749186 364.60950591 -228.81758118 366.51524353 C-232.12006043 374.8158691 -235.63339974 382.81669987 -244 387 C-248.95482094 387.54360446 -252.87125852 387.56437074 -257.375 385.3125 C-263.00583868 380.35199926 -265.85212378 374.58986968 -269.0625 367.9375 C-284.59465792 336.41023639 -303.09653327 306.51974025 -325 279 C-325.72316406 278.08347656 -326.44632812 277.16695312 -327.19140625 276.22265625 C-340.142112 260.07481742 -354.70345418 244.77474196 -371 232 C-372.21151308 231.01271631 -373.42102684 230.02297594 -374.62890625 229.03125 C-381.22444138 223.64266432 -387.66751373 218.6661932 -395.12109375 214.5 C-396.05115234 213.7575 -396.05115234 213.7575 -397 213 C-397 206.49258528 -392.33218022 203.3365558 -387.91796875 198.9140625 C-378.09906688 189.67898723 -367.43193008 184.40909579 -353.90234375 184.76171875 C-330.70583699 186.66614259 -311.92271776 202.9944911 -295.78125 218.37109375 C-293.55115446 220.47903518 -291.2920688 222.47375102 -288.9375 224.4375 C-283.72457901 228.95099343 -279.2038904 234.16302855 -274.58203125 239.26513672 C-273.01586845 240.98259858 -271.4334324 242.68321216 -269.84375 244.37890625 C-263.91974864 250.7044718 -258.31203546 257.14446745 -253 264 C-252.08187872 265.16236725 -251.16252345 266.32376048 -250.2421875 267.484375 C-249.26547014 268.71862747 -248.2889069 269.95300192 -247.3125 271.1875 C-246.86060303 271.75782959 -246.40870605 272.32815918 -245.94311523 272.91577148 C-242.837771 276.8614457 -239.89382879 280.89649864 -237 285 C-233.26823426 281.45977622 -230.23295842 277.73947082 -227.3125 273.5 C-218.72249709 261.26833793 -209.38491917 249.6264875 -200 238 C-199.22785156 237.04222656 -198.45570313 236.08445312 -197.66015625 235.09765625 C-180.23764896 213.64245288 -161.57937195 193.49125605 -142.0625 173.9375 C-141.11222931 172.98334702 -141.11222931 172.98334702 -140.14276123 172.00991821 C-127.9335282 159.76139991 -127.9335282 159.76139991 -121.75561523 154.50610352 C-118.57374065 151.77644362 -115.55029564 148.87475338 -112.5 146 C-107.41376574 141.23325125 -102.29943395 136.52984703 -97 132 C-95.97880423 131.11369867 -94.95800949 130.22693518 -93.9375 129.33984375 C-85.46686064 122.00079215 -76.79436007 114.94680543 -68 108 C-104.03926512 124.87754317 -137.55842607 148.10096428 -168.12109375 173.44580078 C-169.85387287 174.87912613 -171.59783245 176.29758789 -173.34375 177.71484375 C-181.07181667 184.07635502 -188.21854653 191.00937782 -195.3125 198.0625 C-196.2317627 198.97249756 -197.15102539 199.88249512 -198.09814453 200.82006836 C-204.15760448 206.90744452 -209.65960522 213.27803002 -215 220 C-216.04835145 221.27803866 -217.09883435 222.55433479 -218.15234375 223.828125 C-225.00228067 232.211291 -231.15799015 240.88801561 -237 250 C-241.03792385 246.10450733 -244.46497534 241.99192748 -247.8215332 237.50415039 C-250.25117783 234.26358114 -252.73288453 231.10647444 -255.3515625 228.015625 C-264.89806731 216.52003637 -264.89806731 216.52003637 -264.5 210.0625 C-264.06754771 208.02614238 -263.56075534 206.00482439 -263 204 C-262.74992188 202.7521875 -262.49984375 201.504375 -262.2421875 200.21875 C-252.36806482 151.3915055 -224.10820733 111.60088992 -183 84 C-176.1867525 79.66284166 -169.13306561 75.78166479 -162 72 C-161.03271973 71.48614746 -160.06543945 70.97229492 -159.06884766 70.44287109 C-132.98619273 56.72426389 -105.64867161 45.98392263 -78.25906372 35.2097168 C-39.59535492 20.44485356 -39.59535492 20.44485356 -2.85546875 1.55859375 C-1.91316406 1.04425781 -0.97085937 0.52992188 0 0 Z " fill="#27AB4D" transform="translate(705,237)"/>
<path d="M0 0 C5.424375 -0.0825 10.84875 -0.165 16.4375 -0.25 C18.97715454 -0.30462402 18.97715454 -0.30462402 21.56811523 -0.36035156 C38.06635717 -0.56858715 38.06635717 -0.56858715 44.56396484 5.44824219 C50.0147776 11.60632358 50.44156282 16.53916689 50.31640625 24.57421875 C49.77173842 30.47142473 47.73783839 33.34693421 43.4375 37.4375 C41 39 41 39 38 39 C38.35304199 39.52432617 38.70608398 40.04865234 39.06982422 40.58886719 C40.67399073 42.97428019 42.27452632 45.36210792 43.875 47.75 C44.43058594 48.575 44.98617187 49.4 45.55859375 50.25 C46.09355469 51.04921875 46.62851562 51.8484375 47.1796875 52.671875 C47.67194824 53.4050293 48.16420898 54.13818359 48.67138672 54.89355469 C49.92439072 56.88012553 50.9907465 58.88098643 52 61 C47.30547438 62.15848777 43.65827052 62.41473401 39 61 C33.97710933 56.41744987 30.03374691 50.0575661 27 44 C27 43.34 27 42.68 27 42 C21.72 42 16.44 42 11 42 C11 48.27 11 54.54 11 61 C7.37 61 3.74 61 0 61 C0 40.87 0 20.74 0 0 Z " fill="#010101" transform="translate(428,681)"/>
<path d="M0 0 C1.65322266 0.01740234 1.65322266 0.01740234 3.33984375 0.03515625 C4.99693359 0.04869141 4.99693359 0.04869141 6.6875 0.0625 C7.54214844 0.07410156 8.39679687 0.08570313 9.27734375 0.09765625 C9.57278076 0.76369873 9.86821777 1.42974121 10.17260742 2.1159668 C11.0766298 4.15344213 11.98095847 6.19078157 12.88549805 8.22802734 C13.94869586 10.62264663 15.0113484 13.01750807 16.07348633 15.41259766 C19.00184916 22.01052115 21.95104903 28.59825477 24.93359375 35.171875 C25.8220554 37.1350393 26.71019895 39.09834727 27.59829712 41.06167603 C28.17354149 42.33025244 28.75065474 43.59798314 29.3296814 44.86483765 C30.1436871 46.64606501 30.95088621 48.43039813 31.7578125 50.21484375 C32.22082764 51.23175293 32.68384277 52.24866211 33.16088867 53.29638672 C34.27734375 56.09765625 34.27734375 56.09765625 35.27734375 61.09765625 C31.64734375 61.09765625 28.01734375 61.09765625 24.27734375 61.09765625 C22.29734375 56.80765625 20.31734375 52.51765625 18.27734375 48.09765625 C8.04734375 47.76765625 -2.18265625 47.43765625 -12.72265625 47.09765625 C-14.73499609 53.12483498 -14.73499609 53.12483498 -16.72265625 59.16015625 C-19.36719443 61.72205261 -20.78850786 61.39160747 -24.41015625 61.41015625 C-26.1822257 61.32971211 -27.95391645 61.23278917 -29.72265625 61.09765625 C-27.03666868 52.01695212 -22.95153507 43.60261002 -18.97265625 35.03515625 C-17.57977566 32.02447592 -16.18978665 29.01246986 -14.80078125 26 C-14.46099243 25.26470062 -14.12120361 24.52940125 -13.77111816 23.77182007 C-11.05422406 17.87227628 -8.43729503 11.93217959 -5.87969971 5.9618988 C-3.36058772 0.12053758 -3.36058772 0.12053758 0 0 Z " fill="#040404" transform="translate(641.72265625,680.90234375)"/>
<path d="M0 0 C14.85 0 29.7 0 45 0 C45 2.97 45 5.94 45 9 C33.78 9 22.56 9 11 9 C11 14.61 11 20.22 11 26 C20.9 26 30.8 26 41 26 C41 28.97 41 31.94 41 35 C31.1 35 21.2 35 11 35 C11 40.28 11 45.56 11 51 C22.55 51 34.1 51 46 51 C46 54.3 46 57.6 46 61 C30.82 61 15.64 61 0 61 C0 40.87 0 20.74 0 0 Z " fill="#000000" transform="translate(351,681)"/>
<path d="M0 0 C1.4453125 1.90625 1.4453125 1.90625 2 4 C1.06434658 6.64564072 -0.45014515 8.62963376 -2 11 C-2.66644531 10.71125 -3.33289063 10.4225 -4.01953125 10.125 C-11.79929462 6.99133308 -19.06233174 5.25729355 -27.1875 8.125 C-29.25041898 9.93831456 -29.25041898 9.93831456 -29.6875 12.9375 C-29.2874369 16.21175077 -29.2874369 16.21175077 -26.4140625 18.0703125 C-22.80573299 20.10980309 -19.72009529 21.02880511 -15.6875 21.9375 C-8.33739777 23.74957007 -0.86658633 25.63691593 3.5625 32.25 C5.5245426 36.43750759 5.89388305 40.47617445 5 45 C2.68889983 50.56630935 -0.5917367 54.24284616 -6 57 C-16.78521073 60.65600364 -26.61988167 59.47236539 -37 55 C-39.18614586 53.79046883 -41.02287233 52.53776597 -43 51 C-41.94124926 47.59687262 -40.99097846 44.98646769 -39 42 C-36.53781014 42.96573524 -34.1072775 43.94983953 -31.7109375 45.0703125 C-25.46980555 47.88821489 -19.83658539 48.93921141 -13 48 C-9.81439183 46.76464052 -9.81439183 46.76464052 -8 44 C-7.4161804 41.0850745 -7.4161804 41.0850745 -8 38 C-12.22586402 34.59100772 -16.13007101 33.2112001 -21.375 32 C-36.45575902 28.27078556 -36.45575902 28.27078556 -41 21 C-42.83342095 16.56923269 -42.92055931 11.27869391 -41.12890625 6.84375 C-37.98298745 1.3151845 -34.31784572 -1.6197815 -28.19140625 -3.578125 C-18.85525856 -5.37545824 -8.43027149 -4.58289926 0 0 Z " fill="#040404" transform="translate(741,684)"/>
<path d="M0 0 C3.96 0 7.92 0 12 0 C17.51287212 11.23927097 22.27688986 22.77145091 26.99902344 34.3581543 C27.25573822 34.9857515 27.512453 35.61334869 27.77694702 36.25996399 C28.48552508 37.99320078 29.19085295 39.72776527 29.89599609 41.46240234 C30.76789549 43.88999833 30.76789549 43.88999833 32 45 C32.32685791 44.20529297 32.65371582 43.41058594 32.99047852 42.59179688 C45.00190081 13.41124292 45.00190081 13.41124292 51 0 C54.96 0 58.92 0 63 0 C57.07928885 14.33508652 51.04857023 28.62022508 44.9375 42.875 C44.43233353 44.05408432 44.43233353 44.05408432 43.91696167 45.25698853 C42.95460093 47.50241869 41.99122266 49.74740866 41.02734375 51.9921875 C40.73609619 52.67136734 40.44484863 53.35054718 40.14477539 54.05030823 C38.11673457 58.76653087 38.11673457 58.76653087 37 61 C33.37 61 29.74 61 26 61 C21.22280752 50.89783031 16.80784935 40.65667167 12.44897461 30.36889648 C11.30667925 27.67376653 10.16038626 24.98036167 9.01367188 22.28710938 C8.27580477 20.54957975 7.53816643 18.81195295 6.80078125 17.07421875 C6.46323318 16.28133957 6.12568512 15.48846039 5.77790833 14.67155457 C3.72667159 9.8225006 1.81731506 4.94164902 0 0 Z " fill="#030303" transform="translate(265,681)"/>
<path d="M0 0 C16.17 0 32.34 0 49 0 C49 3.3 49 6.6 49 10 C42.73 10 36.46 10 30 10 C30 27.16 30 44.32 30 62 C26.37 62 22.74 62 19 62 C19 44.84 19 27.68 19 10 C12.73 10 6.46 10 0 10 C0 6.7 0 3.4 0 0 Z " fill="#050505" transform="translate(548,680)"/>
<path d="M0 0 C3.63 0 7.26 0 11 0 C11 20.13 11 40.26 11 61 C7.37 61 3.74 61 0 61 C0 40.87 0 20.74 0 0 Z " fill="#000000" transform="translate(509,681)"/>
<path d="M0 0 C4.2384375 -0.0928125 4.2384375 -0.0928125 8.5625 -0.1875 C9.43849854 -0.21481201 10.31449707 -0.24212402 11.21704102 -0.27026367 C16.58845064 -0.32667712 20.28759639 0.35558688 25 3 C27.19657612 5.16064031 27.88809752 6.37999978 28.43359375 9.40234375 C28.44005436 13.59527865 28.40218638 16.28500199 26.3125 20 C21.04426566 24.55631078 15.81369525 24.25248107 9.1875 24.125 C6.155625 24.08375 3.12375 24.0425 0 24 C0 16.08 0 8.16 0 0 Z " fill="#FAFAFA" transform="translate(439,690)"/>
<path d="M0 0 C7.26 0 14.52 0 22 0 C22 6.93 22 13.86 22 21 C14.74 21 7.48 21 0 21 C0 14.07 0 7.14 0 0 Z " fill="#F6F6F7" transform="translate(367,325)"/>
<path d="M0 0 C6.93 0 13.86 0 21 0 C21 7.26 21 14.52 21 22 C14.07 22 7.14 22 0 22 C0 14.74 0 7.48 0 0 Z " fill="#F6F6F7" transform="translate(519,173)"/>
<path d="M0 0 C6.93 0 13.86 0 21 0 C21 7.26 21 14.52 21 22 C14.07 22 7.14 22 0 22 C0 14.74 0 7.48 0 0 Z " fill="#F6F6F7" transform="translate(454,65)"/>
<path d="M0 0 C6.93 0 13.86 0 21 0 C21 7.26 21 14.52 21 22 C14.07 22 7.14 22 0 22 C0 14.74 0 7.48 0 0 Z " fill="#F6F6F7" transform="translate(281,65)"/>
<path d="M0 0 C6.93 0 13.86 0 21 0 C21 7.26 21 14.52 21 22 C14.07 22 7.14 22 0 22 C0 14.74 0 7.48 0 0 Z " fill="#F6F6F7" transform="translate(822,43)"/>
<path d="M0 0 C6.93 0 13.86 0 21 0 C21 7.26 21 14.52 21 22 C14.07 22 7.14 22 0 22 C0 14.74 0 7.48 0 0 Z " fill="#F6F6F7" transform="translate(519,43)"/>
<path d="M0 0 C6.93 0 13.86 0 21 0 C21 7.26 21 14.52 21 22 C14.07 22 7.14 22 0 22 C0 14.74 0 7.48 0 0 Z " fill="#F6F6F7" transform="translate(216,43)"/>
<path d="M0 0 C7.26 0 14.52 0 22 0 C22 6.93 22 13.86 22 21 C14.74 21 7.48 21 0 21 C0 14.07 0 7.14 0 0 Z " fill="#F6F6F7" transform="translate(757,22)"/>
<path d="M0 0 C6.93 0 13.86 0 21 0 C21 6.93 21 13.86 21 21 C14.07 21 7.14 21 0 21 C0 14.07 0 7.14 0 0 Z " fill="#F6F6F7" transform="translate(389,390)"/>
<path d="M0 0 C6.93 0 13.86 0 21 0 C21 6.93 21 13.86 21 21 C14.07 21 7.14 21 0 21 C0 14.07 0 7.14 0 0 Z " fill="#F6F6F7" transform="translate(346,390)"/>
<path d="M0 0 C6.93 0 13.86 0 21 0 C21 6.93 21 13.86 21 21 C14.07 21 7.14 21 0 21 C0 14.07 0 7.14 0 0 Z " fill="#F6F6F7" transform="translate(173,390)"/>
<path d="M0 0 C6.93 0 13.86 0 21 0 C21 6.93 21 13.86 21 21 C14.07 21 7.14 21 0 21 C0 14.07 0 7.14 0 0 Z " fill="#F6F6F7" transform="translate(281,368)"/>
<path d="M0 0 C6.93 0 13.86 0 21 0 C21 6.93 21 13.86 21 21 C14.07 21 7.14 21 0 21 C0 14.07 0 7.14 0 0 Z " fill="#F6F6F7" transform="translate(108,368)"/>
<path d="M0 0 C6.93 0 13.86 0 21 0 C21 6.93 21 13.86 21 21 C14.07 21 7.14 21 0 21 C0 14.07 0 7.14 0 0 Z " fill="#F6F6F7" transform="translate(454,325)"/>
<path d="M0 0 C6.93 0 13.86 0 21 0 C21 6.93 21 13.86 21 21 C14.07 21 7.14 21 0 21 C0 14.07 0 7.14 0 0 Z " fill="#F6F6F7" transform="translate(281,325)"/>
<path d="M0 0 C6.93 0 13.86 0 21 0 C21 6.93 21 13.86 21 21 C14.07 21 7.14 21 0 21 C0 14.07 0 7.14 0 0 Z " fill="#F6F6F7" transform="translate(108,325)"/>
<path d="M0 0 C6.93 0 13.86 0 21 0 C21 6.93 21 13.86 21 21 C14.07 21 7.14 21 0 21 C0 14.07 0 7.14 0 0 Z " fill="#F6F6F7" transform="translate(22,325)"/>
<path d="M0 0 C6.93 0 13.86 0 21 0 C21 6.93 21 13.86 21 21 C14.07 21 7.14 21 0 21 C0 14.07 0 7.14 0 0 Z " fill="#F6F6F7" transform="translate(389,303)"/>
<path d="M0 0 C6.93 0 13.86 0 21 0 C21 6.93 21 13.86 21 21 C14.07 21 7.14 21 0 21 C0 14.07 0 7.14 0 0 Z " fill="#F6F6F7" transform="translate(389,260)"/>
<path d="M0 0 C6.93 0 13.86 0 21 0 C21 6.93 21 13.86 21 21 C14.07 21 7.14 21 0 21 C0 14.07 0 7.14 0 0 Z " fill="#F6F6F7" transform="translate(173,260)"/>
<path d="M0 0 C6.93 0 13.86 0 21 0 C21 6.93 21 13.86 21 21 C14.07 21 7.14 21 0 21 C0 14.07 0 7.14 0 0 Z " fill="#F6F6F7" transform="translate(389,217)"/>
<path d="M0 0 C6.93 0 13.86 0 21 0 C21 6.93 21 13.86 21 21 C14.07 21 7.14 21 0 21 C0 14.07 0 7.14 0 0 Z " fill="#F6F6F7" transform="translate(930,152)"/>
<path d="M0 0 C6.93 0 13.86 0 21 0 C21 6.93 21 13.86 21 21 C14.07 21 7.14 21 0 21 C0 14.07 0 7.14 0 0 Z " fill="#F6F6F7" transform="translate(454,152)"/>
<path d="M0 0 C6.93 0 13.86 0 21 0 C21 6.93 21 13.86 21 21 C14.07 21 7.14 21 0 21 C0 14.07 0 7.14 0 0 Z " fill="#F6F6F7" transform="translate(822,87)"/>
<path d="M0 0 C6.93 0 13.86 0 21 0 C21 6.93 21 13.86 21 21 C14.07 21 7.14 21 0 21 C0 14.07 0 7.14 0 0 Z " fill="#F6F6F7" transform="translate(692,87)"/>
<path d="M0 0 C6.93 0 13.86 0 21 0 C21 6.93 21 13.86 21 21 C14.07 21 7.14 21 0 21 C0 14.07 0 7.14 0 0 Z " fill="#F6F6F7" transform="translate(519,87)"/>
<path d="M0 0 C6.93 0 13.86 0 21 0 C21 6.93 21 13.86 21 21 C14.07 21 7.14 21 0 21 C0 14.07 0 7.14 0 0 Z " fill="#F6F6F7" transform="translate(216,87)"/>
<path d="M0 0 C6.93 0 13.86 0 21 0 C21 6.93 21 13.86 21 21 C14.07 21 7.14 21 0 21 C0 14.07 0 7.14 0 0 Z " fill="#F6F6F7" transform="translate(173,87)"/>
<path d="M0 0 C6.93 0 13.86 0 21 0 C21 6.93 21 13.86 21 21 C14.07 21 7.14 21 0 21 C0 14.07 0 7.14 0 0 Z " fill="#F6F6F7" transform="translate(801,22)"/>
<path d="M0 0 C6.93 0 13.86 0 21 0 C21 6.93 21 13.86 21 21 C14.07 21 7.14 21 0 21 C0 14.07 0 7.14 0 0 Z " fill="#F6F6F6" transform="translate(454,22)"/>
<path d="M0 0 C2.28805829 2.84722437 3.83795191 5.59027184 5.26171875 8.94921875 C5.65810547 9.87927734 6.05449219 10.80933594 6.46289062 11.76757812 C7.06907227 13.21293945 7.06907227 13.21293945 7.6875 14.6875 C8.10322266 15.66267578 8.51894531 16.63785156 8.94726562 17.64257812 C12 24.8458282 12 24.8458282 12 26 C4.41 26 -3.18 26 -11 26 C-9.35502342 22.04130863 -7.70905964 18.08303286 -6.0625 14.125 C-5.59392578 12.99707031 -5.12535156 11.86914062 -4.64257812 10.70703125 C-4.19462891 9.63066406 -3.74667969 8.55429687 -3.28515625 7.4453125 C-2.87144775 6.45031738 -2.45773926 5.45532227 -2.03149414 4.43017578 C-1.39674734 2.93472734 -0.72653555 1.4530711 0 0 Z " fill="#F9F9F9" transform="translate(644,692)"/>
<path d="M0 0 C7.26 0 14.52 0 22 0 C20.85854189 7.99020675 20.85854189 7.99020675 17 11 C15.06329393 12.33464889 13.08025987 13.60387965 11.0625 14.8125 C10.04285156 15.43769531 9.02320313 16.06289063 7.97265625 16.70703125 C5 18 5 18 0 17 C0 11.39 0 5.78 0 0 Z " fill="#F4F5F5" transform="translate(519,303)"/>
<path d="M0 0 C5.28 0 10.56 0 16 0 C16.33 0.99 16.66 1.98 17 3 C15.66866915 5.58902614 14.29778583 7.98409481 12.75 10.4375 C12.34136719 11.10587891 11.93273437 11.77425781 11.51171875 12.46289062 C9.47975317 15.75911775 7.39916335 18.95430886 5 22 C3.35 21.67 1.7 21.34 0 21 C0 14.07 0 7.14 0 0 Z " fill="#F5F6F5" transform="translate(454,368)"/>
<path d="M0 0 C0 6.93 0 13.86 0 21 C-3.3 21 -6.6 21 -10 21 C-9.3476221 14.21526979 -8.16619751 7.47786336 -6 1 C-4 0 -4 0 0 0 Z " fill="#F4F5F5" transform="translate(713,390)"/>
<path d="M0 0 C0 3.42801683 -0.43540049 3.91071644 -2.51953125 6.46875 C-3.04740234 7.12230469 -3.57527344 7.77585937 -4.11914062 8.44921875 C-4.67794922 9.12597656 -5.23675781 9.80273438 -5.8125 10.5 C-6.35970703 11.17675781 -6.90691406 11.85351562 -7.47070312 12.55078125 C-9.87242739 15.50271871 -12.27129797 18.34258702 -15 21 C-15.71875 19.234375 -15.71875 19.234375 -16 17 C-14.59375 15.140625 -14.59375 15.140625 -12.5 13.25 C-8.87655999 9.85581103 -5.58153829 6.33067441 -2.34765625 2.56640625 C-1.59150381 1.68751602 -0.81982149 0.81982149 0 0 Z " fill="#F2FAF4" transform="translate(610,392)"/>
<path d="M0 0 C0.66 0.33 1.32 0.66 2 1 C-0.07342766 2.84571017 -2.15739889 4.67625557 -4.25 6.5 C-5.12978516 7.28697266 -5.12978516 7.28697266 -6.02734375 8.08984375 C-6.60097656 8.58613281 -7.17460938 9.08242188 -7.765625 9.59375 C-8.55114746 10.28500977 -8.55114746 10.28500977 -9.35253906 10.99023438 C-11 12 -11 12 -15 12 C-14.03680587 8.33732758 -13.2009451 7.13907516 -10.03125 4.9453125 C-8.8659375 4.34460938 -7.700625 3.74390625 -6.5 3.125 C-5.3346875 2.50882812 -4.169375 1.89265625 -2.96875 1.2578125 C-1.9890625 0.84273438 -1.009375 0.42765625 0 0 Z " fill="#E6F5EA" transform="translate(636,344)"/>
<path d="M0 0 C0.99 0.33 1.98 0.66 3 1 C1.02 5.455 1.02 5.455 -1 10 C-1.66 9.67 -2.32 9.34 -3 9 C-2.01 6.03 -1.02 3.06 0 0 Z " fill="#F1F6F3" transform="translate(490,567)"/>
<path d="M0 0 C0.33 0.99 0.66 1.98 1 3 C-1.64 5.31 -4.28 7.62 -7 10 C-7 7 -7 7 -5.46875 5.17578125 C-4.8190625 4.56089844 -4.169375 3.94601562 -3.5 3.3125 C-2.8503125 2.68988281 -2.200625 2.06726563 -1.53125 1.42578125 C-0.77328125 0.72001953 -0.77328125 0.72001953 0 0 Z " fill="#15A137" transform="translate(537,438)"/>
<path d="M0 0 C0.33 0.66 0.66 1.32 1 2 C-4.14285714 7.57142857 -4.14285714 7.57142857 -8 8 C-5.58443874 4.80800833 -3.31996462 2.25283313 0 0 Z " fill="#19A23C" transform="translate(638,344)"/>
<path d="M0 0 C0 3.90838866 -1.50567876 5.11594107 -4 8 C-4.99 7.67 -5.98 7.34 -7 7 C-4.69 4.69 -2.38 2.38 0 0 Z " fill="#CCE9D3" transform="translate(610,392)"/>
</svg>
